<svg xmlns="http://www.w3.org/2000/svg" width="25.345" height="20.593" viewBox="0 0 25.345 20.593"><defs><style>.a{fill:#03a9f4;}</style></defs><path class="a" d="M25.345,50.438a10.833,10.833,0,0,1-2.994.821,5.167,5.167,0,0,0,2.286-2.872,10.384,10.384,0,0,1-3.295,1.258A5.2,5.2,0,0,0,12.354,53.2a5.35,5.35,0,0,0,.12,1.185,14.707,14.707,0,0,1-10.71-5.435,5.2,5.2,0,0,0,1.6,6.945,5.131,5.131,0,0,1-2.348-.64v.057a5.22,5.22,0,0,0,4.163,5.105,5.186,5.186,0,0,1-1.362.171,4.594,4.594,0,0,1-.984-.089,5.245,5.245,0,0,0,4.855,3.62,10.44,10.44,0,0,1-6.442,2.216A9.733,9.733,0,0,1,0,66.261a14.628,14.628,0,0,0,7.971,2.332A14.687,14.687,0,0,0,22.76,53.807c0-.23-.008-.451-.019-.672A10.366,10.366,0,0,0,25.345,50.438Z" transform="translate(0 -48)"/></svg>